<svg xmlns="http://www.w3.org/2000/svg" viewBox="0 0 767.211 621.158">
  <g id="Layer_1" data-name="Layer 1">
    <path d="M244.182,23.707C162.557,57.673,115.714,140.245,115.714,255.118S91.805,354.829,61.038,412.987C39.069,454.512,51.065,526.842,79.3,560.564c39.115,46.711,106.385,65.871,182.064,59.358,122.913-10.577,131.2-121.468,313.761-76.01,86.915,21.643,165.022-53.047,188.6-159.6,14.145-63.931-15.456-150.722-76.25-185.2-82.86-46.989-80.316-6.8-172.09-108.431C416.748-18.551,332.04-12.853,244.182,23.707Z" fill="#f3f5fd"></path>
    <g>
      <g>
        <circle cx="680.376" cy="207.373" r="42.325" fill="#000000"></circle>
        <g opacity="0.29">
          <circle cx="680.376" cy="207.373" r="27.437" fill="#fff"></circle>
        </g>
      </g>
      <path d="M671.4,217.173l2.56-3.969a9.32,9.32,0,0,0,5.69,2.348c2.262,0,3.257-.939,3.257-2.755,0-4.106-10.535-4.032-10.535-11.234,0-4.629,3.207-7.578,8.264-7.578a9.9,9.9,0,0,1,7.6,3.385l-2.935,3.363a6.168,6.168,0,0,0-4.347-2.014c-1.92,0-2.962.774-2.962,2.567,0,3.806,10.535,3.474,10.535,11.1,0,4.583-3.033,7.9-8.874,7.9A13.278,13.278,0,0,1,671.4,217.173Zm7.019-27.1h3.894v5.747h-3.894Zm0,27.816h3.894V224.2h-3.894Z" fill="#fff"></path>
    </g>
    <g>
      <g>
        <circle cx="609.665" cy="297.714" r="27.437" fill="#000000"></circle>
        <g opacity="0.29">
          <circle cx="609.665" cy="297.714" r="17.786" fill="#fff"></circle>
        </g>
      </g>
      <path d="M603.844,304.067l1.659-2.573a6.042,6.042,0,0,0,3.689,1.522c1.466,0,2.111-.608,2.111-1.786,0-2.662-6.829-2.614-6.829-7.282,0-3,2.079-4.913,5.357-4.913a6.414,6.414,0,0,1,4.925,2.195l-1.9,2.18a4,4,0,0,0-2.818-1.306c-1.245,0-1.92.5-1.92,1.664,0,2.467,6.829,2.252,6.829,7.2,0,2.971-1.966,5.12-5.752,5.12A8.608,8.608,0,0,1,603.844,304.067Zm4.55-17.567h2.524v3.726h-2.524Zm0,18.032h2.524v4.088h-2.524Z" fill="#fff"></path>
    </g>
  </g>
  <g id="Isolation_Mode" data-name="Isolation Mode">
    <g>
      <rect x="56.081" y="118.961" width="338.947" height="422.24" transform="translate(-89.54 84.025) rotate(-17.668)" fill="#c1d8ed"></rect>
      <g opacity="0.61">
        <path d="M109.389,439.644a1.4,1.4,0,0,1-1.34-.979L70.1,319.52a1.406,1.406,0,0,1,.913-1.767L344.5,230.642a1.407,1.407,0,0,1,1.767.913L384.214,350.7a1.4,1.4,0,0,1-.913,1.766L109.816,439.578A1.389,1.389,0,0,1,109.389,439.644ZM73.205,320.006,110.3,436.47l270.806-86.256-37.1-116.465Z" fill="#fff"></path>
      </g>
      <g opacity="0.61">
        <path d="M117.679,465.671a1.407,1.407,0,0,1-.427-2.748l273.486-87.111a1.406,1.406,0,0,1,.853,2.68L118.106,465.6A1.385,1.385,0,0,1,117.679,465.671Z" fill="#fff"></path>
      </g>
      <g opacity="0.61">
        <path d="M124.625,487.48a1.407,1.407,0,0,1-.426-2.747l273.485-87.111a1.406,1.406,0,1,1,.853,2.679L125.052,487.413A1.379,1.379,0,0,1,124.625,487.48Z" fill="#fff"></path>
      </g>
      <g opacity="0.61">
        <path d="M131.572,509.289a1.407,1.407,0,0,1-.427-2.747L404.63,419.43a1.406,1.406,0,0,1,.854,2.68L132,509.221A1.379,1.379,0,0,1,131.572,509.289Z" fill="#fff"></path>
      </g>
      <g opacity="0.61">
        <path d="M138.519,531.1a1.407,1.407,0,0,1-.427-2.747L411.578,441.24a1.406,1.406,0,0,1,.853,2.68L138.946,531.031A1.383,1.383,0,0,1,138.519,531.1Z" fill="#fff"></path>
      </g>
      <g opacity="0.61">
        <path d="M64.181,297.714a1.407,1.407,0,0,1-.427-2.747L337.24,207.856a1.406,1.406,0,0,1,.853,2.68L64.608,297.648A1.412,1.412,0,0,1,64.181,297.714Z" fill="#fff"></path>
      </g>
      <g opacity="0.61">
        <path d="M145.639,244.134a1.407,1.407,0,0,1-.427-2.747l184.036-58.62a1.407,1.407,0,0,1,.854,2.681l-184.036,58.62A1.444,1.444,0,0,1,145.639,244.134Z" fill="#fff"></path>
      </g>
      <g opacity="0.61">
        <rect x="123.925" y="155.046" width="193.146" height="9" transform="translate(-38.031 74.474) rotate(-17.674)" fill="#fff"></rect>
      </g>
      <g opacity="0.61">
        <path d="M137.06,217.2a1.407,1.407,0,0,1-.427-2.747l184.035-58.619a1.406,1.406,0,1,1,.854,2.68L137.487,217.131A1.414,1.414,0,0,1,137.06,217.2Z" fill="#fff"></path>
      </g>
      <path d="M165.482,384.246a1.4,1.4,0,0,1-.484.065l-51.831-2.177a1.4,1.4,0,0,1,.118-2.807l50.947,2.14L196.14,321.6a1.406,1.406,0,0,1,1.757-.646l43.467,17.187L269.978,308.1a1.407,1.407,0,0,1,1.328-.4l49.558,11.248,15.143-41.739a1.4,1.4,0,0,1,2.641.958l-15.565,42.9a1.4,1.4,0,0,1-1.632.891l-49.99-11.345-28.716,30.152a1.406,1.406,0,0,1-1.534.337l-43.182-17.074L166.3,383.568A1.406,1.406,0,0,1,165.482,384.246Z" fill="#262626"></path>
      <circle cx="83.077" cy="231.306" r="37.733" fill="#f3f5fd"></circle>
      <path d="M101.37,198.307l-18.287,33L71.631,195.356a37.6,37.6,0,0,1,28.789,2.438C100.738,197.958,101.058,198.131,101.37,198.307Z" fill="#000000"></path>
      <path d="M119.036,219.857a37.482,37.482,0,0,1,.824,19.9l-36.777-8.445,17.337-33.515c.318.164.638.337.95.513A37.59,37.59,0,0,1,119.036,219.857Z" fill="#262626"></path>
      <path d="M121.173,407.18a1.5,1.5,0,0,1-1.4-2.027l27.672-73.668a1.5,1.5,0,0,1,1.959-.867l58.791,23.412,25.273-32.544a1.5,1.5,0,0,1,1.528-.54l51.952,12.189,44.129-71.856a1.5,1.5,0,1,1,2.556,1.57l-44.695,72.779a1.5,1.5,0,0,1-1.621.675l-52.069-12.216L209.869,356.76a1.5,1.5,0,0,1-1.74.474l-58.418-23.263-27.133,72.237A1.5,1.5,0,0,1,121.173,407.18Z" fill="#fff"></path>
    </g>
    <g>
      <rect x="216.615" y="70.011" width="351.913" height="450.85" fill="#dee8f5"></rect>
      <rect x="244.341" y="98.689" width="65.397" height="58.545" fill="#fff"></rect>
      <g>
        <rect x="482.351" y="242.764" width="58.456" height="140.36" fill="#8ddbe0"></rect>
        <rect x="244.347" y="364.167" width="238.005" height="17.895" fill="#c1d8ed"></rect>
        <g>
          <rect x="244.335" y="234.314" width="296.472" height="16.901" fill="#fff"></rect>
          <g>
            <polygon points="542.213 384.531 242.929 384.531 242.929 234.314 245.741 234.314 245.741 381.719 539.401 381.719 539.401 234.314 542.213 234.314 542.213 384.531" fill="#fff"></polygon>
            <rect x="297.401" y="242.764" width="2.813" height="140.361" fill="#fff"></rect>
            <rect x="244.347" y="267.703" width="296.46" height="2.813" fill="#fff"></rect>
            <rect x="244.347" y="286.715" width="296.46" height="2.813" fill="#fff"></rect>
            <rect x="244.347" y="305.726" width="296.46" height="2.813" fill="#fff"></rect>
            <rect x="244.347" y="324.738" width="296.46" height="2.813" fill="#fff"></rect>
            <rect x="244.347" y="343.749" width="296.46" height="2.813" fill="#fff"></rect>
            <rect x="244.347" y="362.761" width="296.46" height="2.813" fill="#fff"></rect>
            <rect x="420.914" y="242.764" width="2.813" height="140.361" fill="#fff"></rect>
            <rect x="480.944" y="242.764" width="2.813" height="140.361" fill="#fff"></rect>
          </g>
        </g>
      </g>
      <rect x="450.955" y="460.873" width="89.852" height="32.121" fill="#fff"></rect>
      <rect x="244.335" y="410.587" width="296.472" height="2.813" fill="#fff"></rect>
      <rect x="244.335" y="435.027" width="296.472" height="2.813" fill="#fff"></rect>
      <rect x="336.086" y="131.388" width="204.721" height="2.813" fill="#fff"></rect>
      <rect x="336.086" y="155.828" width="104.695" height="2.813" fill="#fff"></rect>
      <rect x="244.335" y="182.933" width="296.472" height="2.813" fill="#fff"></rect>
      <rect x="244.335" y="207.373" width="296.472" height="2.813" fill="#fff"></rect>
      <rect x="336.086" y="99.689" width="204.721" height="11.522" fill="#fff"></rect>
    </g>
    <g>
      <rect x="527.8" y="365.335" width="172.863" height="200.672" rx="13.229" transform="translate(162.216 -158.678) rotate(16.929)" fill="#262626"></rect>
      <g>
        <rect x="561.541" y="382.414" width="145.441" height="34.902" rx="7.668" transform="translate(143.922 -167.362) rotate(16.929)" fill="#fff"></rect>
        <rect x="550.077" y="412.782" width="40.761" height="33.913" rx="5.755" transform="translate(149.856 -147.489) rotate(16.929)" fill="#fd5d76"></rect>
        <rect x="600.149" y="428.022" width="40.761" height="33.913" rx="5.755" transform="translate(156.464 -161.409) rotate(16.929)" fill="#0f1011" opacity="0.16"></rect>
        <rect x="650.221" y="443.263" width="40.761" height="33.913" rx="5.755" transform="translate(163.071 -175.329) rotate(16.929)" fill="#0f1011" opacity="0.16"></rect>
        <rect x="536.841" y="456.267" width="40.761" height="33.913" rx="5.755" transform="translate(161.945 -141.75) rotate(16.929)" fill="#0f1011" opacity="0.16"></rect>
        <rect x="586.913" y="471.508" width="40.761" height="33.913" rx="5.755" transform="translate(168.552 -155.67) rotate(16.929)" fill="#0f1011" opacity="0.16"></rect>
        <rect x="523.605" y="499.752" width="40.761" height="33.913" rx="5.755" transform="translate(174.033 -136.012) rotate(16.929)" fill="#0f1011" opacity="0.16"></rect>
        <rect x="573.677" y="514.993" width="40.761" height="33.913" rx="5.755" transform="translate(180.641 -149.932) rotate(16.929)" fill="#0f1011" opacity="0.16"></rect>
        <path d="M648.312,483.224a5.757,5.757,0,0,0-7.182,3.83l-11.56,37.98-2.432,7.989-5.767,18.949a5.754,5.754,0,0,0,3.829,7.181l27.984,8.518a5.754,5.754,0,0,0,7.181-3.83l5.768-18.949,2.432-7.989,11.56-37.98a5.755,5.755,0,0,0-3.83-7.181Z" fill="#000000"></path>
      </g>
    </g>
  </g>
</svg>