<svg xmlns="http://www.w3.org/2000/svg" width="158.266" height="43.349" viewBox="0 0 158.266 43.349"><defs><style>.a{fill:#002e72;}</style></defs><g transform="translate(0)"><g transform="translate(0 0)"><path class="a" d="M231.156,309l-.155.066a12.146,12.146,0,0,1-2.607.641l-.088.022v.088a17.5,17.5,0,0,1-.906,4.043v.022l.972,4.463.133-.243a19.571,19.571,0,0,0,2.629-8.926Z" transform="translate(-191.03 -284.829)"/><path class="a" d="M191.933,229.812l-.133.11.155.088a16.994,16.994,0,0,1,4.419,3.623l.044.044h3.513l-.133-.177a19.875,19.875,0,0,0-5.745-5.457l-.088-.044-.066.066A16.551,16.551,0,0,1,191.933,229.812Z" transform="translate(-163.295 -221.725)"/><path class="a" d="M93.138,213.453h0a13.758,13.758,0,0,0-4.551-3.4c-.287-.133-.641-.287-1.061-.442-.265-.11-.552-.177-.818-.265l-.265-.088c-.376-.11-.751-.2-1.1-.265l-.221-.044c-.287-.044-.6-.11-.884-.133l-.906-.088-.707,1.5a4.288,4.288,0,0,1-1.922,1.723,4.36,4.36,0,0,1-2.629.309,22.192,22.192,0,0,1-2.961-1.1,18.246,18.246,0,0,1-2.408-1.193,4.439,4.439,0,0,1-1.547-2.408,4.359,4.359,0,0,1,.309-2.85,4.272,4.272,0,0,1,1.458-1.723,4.382,4.382,0,0,1,2.055-.751l15.8.066a11.281,11.281,0,0,1-8.352,3.712l-7.357-.022-.022,2.585,7.4.022a13.94,13.94,0,0,0,12-6.938l1.171-1.944-20.658-.11H74.91a6.884,6.884,0,0,0-5.789,3.955,6.891,6.891,0,0,0-.464,4.551,7.02,7.02,0,0,0,2.452,3.867,14.886,14.886,0,0,0,2.983,1.525,24.563,24.563,0,0,0,3.491,1.259,6.891,6.891,0,0,0,4.176-.508,7,7,0,0,0,3.093-2.74h.022a7.861,7.861,0,0,1,.862.2h.022c.287.088.574.177.884.287.243.088.508.221.84.376a11.34,11.34,0,0,1,5.281,5.038,11.724,11.724,0,0,1,1.281,5.391,10.74,10.74,0,0,1-.4,2.806l-.022.066,1.988,9.28-5.038,3.491a5.8,5.8,0,0,1-1.392-.044,5.618,5.618,0,0,1-1.613-.486,5.993,5.993,0,0,1-1.745-1.259,5.777,5.777,0,0,1-1.149-1.812l-.331-.884-.928.066a11.314,11.314,0,0,1-2.85-.177,10.8,10.8,0,0,1-2.718-.884A11.2,11.2,0,0,1,72.7,228.1a11.415,11.415,0,0,1-1.348-4.308,20.961,20.961,0,0,1,.331-4.242l.022-.177-2.364-1.083-.066.243c0,.044-.2.751-.287,1.083a4.075,4.075,0,0,1-.729-.2,4.745,4.745,0,0,1-1.5-.972,4.664,4.664,0,0,1-1.259-2.364,4.469,4.469,0,0,1,.088-1.944l12.726,5.988a2.9,2.9,0,0,0-.2.376l-.066.155a5.04,5.04,0,0,0,2.475,6.54l.155.066a4.988,4.988,0,0,0,3.248.243,9.03,9.03,0,0,0,.928-.353l1.635,7.733.84.177a6.732,6.732,0,0,1,2.011.707,3.364,3.364,0,0,1,.862.729l.133.155,2.1-1.591-.155-.177a5.662,5.662,0,0,0-1.613-1.37,7.782,7.782,0,0,0-1.944-.8l-1.569-7.446a7.888,7.888,0,0,0-2.055-3.933,13.381,13.381,0,0,0-4.11-2.85l-16.637-7.821-.818,1.635-.022.066a6.689,6.689,0,0,0-.53,4.154,7.031,7.031,0,0,0,4.4,5.281,6.467,6.467,0,0,0,1.326.331,14.241,14.241,0,0,0,1.7,7.181,13.831,13.831,0,0,0,6.319,5.943,14.351,14.351,0,0,0,3.336,1.083,13.874,13.874,0,0,0,2.585.243,8.31,8.31,0,0,0,1.281,1.79,8.508,8.508,0,0,0,2.519,1.834,7.589,7.589,0,0,0,2.342.707,10.057,10.057,0,0,0,1.171.088,8.521,8.521,0,0,0,1.281-.088l.309-.044,6.96-4.839L96.32,225.649l.11-.641a14,14,0,0,0-1.348-8.816,1.075,1.075,0,0,1-.088-.331h11.114a8.093,8.093,0,0,1-2.165,2.033,10.721,10.721,0,0,1-4.308,1.679l-.177.022V222.2l.243-.044a13.957,13.957,0,0,0,10.1-6.783l1.149-1.944Zm-12.483,8.263.066-.133A9.588,9.588,0,0,1,83,223.307a6.689,6.689,0,0,1,.884,1.237,2.377,2.377,0,0,1-.641.287,2.175,2.175,0,0,1-1.525-.155,2.242,2.242,0,0,1-1.061-2.961Z" transform="translate(-62.844 -199.6)"/><path class="a" d="M85.216,320.791a10.486,10.486,0,0,1-2.939-2.209l-.243-.265H81.99a17.511,17.511,0,0,1-6.429-1.569l-.11-.044a16.989,16.989,0,0,1-8.816-9.655,17.49,17.49,0,0,1-.994-4.772v-.066l-.066-.022a9.421,9.421,0,0,1-2.232-1.613,2.843,2.843,0,0,1-.354-.376l-.155-.2-.022.265A19.886,19.886,0,0,0,74.08,319.2l.133.066a19.725,19.725,0,0,0,8.462,1.9,18.937,18.937,0,0,0,2.5-.155l.354-.044Z" transform="translate(-62.787 -277.817)"/></g><g transform="translate(51.505 13.743)"><path class="a" d="M411.513,283.807a4.412,4.412,0,0,0-1.281-3.248,4.3,4.3,0,0,0-3.159-1.259,4.714,4.714,0,0,0-3.469,1.326,4.511,4.511,0,0,0-1.3,3.358,4.563,4.563,0,0,0,1.326,3.358,5.214,5.214,0,0,0,6.739.177l-1.679-1.679a1.679,1.679,0,0,1-1.525.663,2.131,2.131,0,0,1-2.254-1.591h6.54A6.425,6.425,0,0,0,411.513,283.807Zm-6.628-.707a2.019,2.019,0,0,1,2.121-1.679,1.819,1.819,0,0,1,1.922,1.679Z" transform="translate(-378.791 -275.433)"/><path class="a" d="M304.605,262.662A4.162,4.162,0,0,1,306.594,266H303.92a2.1,2.1,0,0,0-2.408-1.878c-1.348,0-2.21.574-2.21,1.547,0,.818.574,1.215,1.79,1.458l1.569.309c2.607.53,3.867,1.547,3.867,3.6a3.563,3.563,0,0,1-1.392,2.939,5.757,5.757,0,0,1-3.668,1.1,6.239,6.239,0,0,1-3.867-1.171,4.372,4.372,0,0,1-1.7-3.292h2.7c.2,1.282,1.326,2.1,3.027,2.1,1.348,0,2.1-.486,2.1-1.37,0-.685-.53-1.1-1.591-1.3l-2.077-.4c-2.408-.442-3.624-1.745-3.624-3.756a3.707,3.707,0,0,1,1.326-2.961,5.342,5.342,0,0,1,3.535-1.127A6.8,6.8,0,0,1,304.605,262.662Z" transform="translate(-295.9 -261.8)"/><path class="a" d="M360.685,280.745a4.865,4.865,0,0,1,0,6.628,4.148,4.148,0,0,1-3.137,1.348,4.672,4.672,0,0,1-2.541-.707v4.861H352.4v-13.3h2.607v.53a4.672,4.672,0,0,1,2.541-.707A4.136,4.136,0,0,1,360.685,280.745Zm-1.944,5.06a2.567,2.567,0,0,0,0-3.491,2.1,2.1,0,0,0-1.657-.751,2.5,2.5,0,0,0-2.121,1.038v2.872a2.557,2.557,0,0,0,2.121,1.038A2.17,2.17,0,0,0,358.741,285.8Z" transform="translate(-339.917 -275.509)"/><path class="a" d="M458.719,287.3c-.111.11-.221.221-.354.331a5.044,5.044,0,0,1-6.474-.287,4.518,4.518,0,0,1-1.392-3.358,4.435,4.435,0,0,1,1.392-3.336,5.011,5.011,0,0,1,6.474-.309c.11.088.221.2.331.287l-1.745,1.745a1.86,1.86,0,0,0-1.635-.8,2.367,2.367,0,0,0,0,4.728,1.9,1.9,0,0,0,1.657-.8Z" transform="translate(-416.342 -275.433)"/><path class="a" d="M530.307,280.571a4.489,4.489,0,0,1,3.137-1.171v2.475a4.327,4.327,0,0,0-3.137,1.281V288.5H527.7v-8.97h2.607Z" transform="translate(-476.485 -275.511)"/><path class="a" d="M566.119,280.626a4.4,4.4,0,0,1,1.37,3.358,4.5,4.5,0,0,1-1.37,3.4,4.6,4.6,0,0,1-3.4,1.348,4.7,4.7,0,0,1-3.447-1.348,4.529,4.529,0,0,1-1.37-3.4,4.4,4.4,0,0,1,1.37-3.358,5.086,5.086,0,0,1,6.849,0Zm-1.215,3.358a2.235,2.235,0,1,0-4.463,0,2.24,2.24,0,1,0,4.463,0Z" transform="translate(-500.012 -275.433)"/><path class="a" d="M618.734,273.168l-.53.53a6.115,6.115,0,0,1-4.176,1.48A6.464,6.464,0,0,1,609.3,273.3a6.377,6.377,0,0,1-1.9-4.75,6.493,6.493,0,0,1,6.628-6.65,6.115,6.115,0,0,1,4.176,1.48c.066.066.133.11.2.177l-1.878,1.878a3.452,3.452,0,0,0-2.519-.95,3.728,3.728,0,0,0-2.806,1.127,4.4,4.4,0,0,0,0,5.833,3.728,3.728,0,0,0,2.806,1.127,3.294,3.294,0,0,0,2.806-1.326Z" transform="translate(-538.576 -261.878)"/><path class="a" d="M498.91,275.716a7.788,7.788,0,0,1-2.408.42c-2.165,0-3.6-1.525-3.6-3.867v-7.755l2.585-1.414v3.778h3.248v2.187h-3.248v3.182c0,.994.53,1.48,1.569,1.48a5.628,5.628,0,0,0,1.525-.243Z" transform="translate(-449.374 -262.813)"/><path class="a" d="M671.619,280.626a4.4,4.4,0,0,1,1.37,3.358,4.5,4.5,0,0,1-1.37,3.4,4.6,4.6,0,0,1-3.4,1.348,4.7,4.7,0,0,1-3.447-1.348,4.529,4.529,0,0,1-1.37-3.4,4.4,4.4,0,0,1,1.37-3.358,5.086,5.086,0,0,1,6.849,0Zm-1.215,3.358a2.235,2.235,0,1,0-4.463,0,2.24,2.24,0,1,0,4.463,0Z" transform="translate(-582.203 -275.433)"/><path class="a" d="M718.051,265.551H715.4V262.9h2.651Zm-.022,10.141h-2.607v-8.97h2.607Z" transform="translate(-622.714 -262.657)"/><path class="a" d="M745.92,279.993A4.443,4.443,0,0,1,747,283.131v4.927H744.4v-4.706c0-1.414-.707-2.187-1.922-2.187a2.6,2.6,0,0,0-1.966,1.127v5.767H737.9v-8.97h2.607v.641a4.022,4.022,0,0,1,2.563-.928A3.809,3.809,0,0,1,745.92,279.993Z" transform="translate(-640.242 -275.044)"/></g></g></svg>