<svg id="Layer_1" data-name="Layer 1" xmlns="http://www.w3.org/2000/svg" viewBox="0 0 842.184 928.474">
  <g>
    <path d="M24.2,795.282c-7.516-53.2,7.057-110.947,49.183-158.495C188.661,506.674,183.752,532.8,204.014,376.206S394.81,158.528,521.121,223.8C674.04,302.816,594.69,332.515,777.032,464.45,934.649,578.5,788.579,793.528,528.475,883.712,318.255,956.6,45.969,949.366,24.2,795.282Z" fill="#6EA667" opacity="0.1"></path>
    <path d="M154.958,337.559H642.344A41.758,41.758,0,0,1,684.1,379.318V749.4a41.758,41.758,0,0,1-41.758,41.758H136.352A41.758,41.758,0,0,1,94.594,749.4V397.924A60.365,60.365,0,0,1,154.958,337.559Z" fill="#262626"></path>
    <rect x="94.594" y="372.983" width="625.941" height="453.597" rx="41.758" fill="#6EA667"></rect>
    <rect x="94.594" y="372.983" width="625.941" height="453.597" rx="41.758" fill="#fff" opacity="0.55"></rect>
    <path d="M678.777,828.079H136.352a43.306,43.306,0,0,1-43.258-43.258V414.741a43.308,43.308,0,0,1,43.258-43.259H678.777a43.308,43.308,0,0,1,43.257,43.259v370.08A43.306,43.306,0,0,1,678.777,828.079Zm-542.425-453.6a40.3,40.3,0,0,0-40.258,40.259v370.08a40.3,40.3,0,0,0,40.258,40.258H678.777a40.3,40.3,0,0,0,40.257-40.258V414.741a40.3,40.3,0,0,0-40.257-40.259Z" fill="#262626"></path>
    <path d="M672.885,794.741H660.736v-3H672.8Zm-24.216,0H636.6v-3h12.066Zm-24.133,0H612.47v-3h12.066Zm-24.132,0H588.337v-3H600.4Zm-24.133,0H564.2v-3h12.067Zm-24.133,0H540.072v-3h12.066Zm-24.133,0H515.939v-3h12.066Zm-24.133,0H491.806v-3h12.066Zm-24.132,0H467.673v-3H479.74Zm-24.133,0H443.54v-3h12.067Zm-24.133,0H419.408v-3h12.066Zm-24.133,0H395.275v-3h12.066Zm-24.133,0H371.142v-3h12.066Zm-24.133,0H347.009v-3h12.066Zm-24.132,0H322.876v-3h12.067Zm-24.133,0H298.743v-3H310.81Zm-24.133,0H274.611v-3h12.066Zm-24.133,0H250.478v-3h12.066Zm-24.133,0H226.345v-3h12.066Zm-24.132,0H202.212v-3h12.067Zm-24.133,0H178.079v-3h12.067Zm-24.133,0H153.947v-3h12.066Zm-24.186-.014a22.533,22.533,0,0,1-12.092-4.03l1.714-2.463a19.528,19.528,0,0,0,10.485,3.5Zm543.279-3.62-1.633-2.517a19.655,19.655,0,0,0,7.217-8.381l2.732,1.24A22.66,22.66,0,0,1,685.106,791.107Zm-563.37-10.333a22.493,22.493,0,0,1-1.718-8.663v-3.763h3v3.763a19.5,19.5,0,0,0,1.49,7.515Zm573.7-11.742h-3V756.966h3ZM123.018,756.281h-3V744.215h3ZM695.433,744.9h-3V732.833h3ZM123.018,732.148h-3V720.082h3Zm572.415-11.381h-3V708.7h3ZM123.018,708.016h-3V695.949h3Zm572.415-11.382h-3V684.567h3ZM123.018,683.883h-3V671.816h3ZM695.433,672.5h-3V660.435h3ZM123.018,659.75h-3V647.684h3Zm572.415-11.382h-3V636.3h3ZM123.018,635.617h-3V623.551h3Zm572.415-11.382h-3V612.169h3ZM123.018,611.484h-3V599.418h3ZM695.433,600.1h-3V588.036h3ZM123.018,587.352h-3V575.285h3ZM695.433,575.97h-3V563.9h3ZM123.018,563.219h-3V551.152h3Zm572.415-11.382h-3V539.771h3ZM123.018,539.086h-3V527.02h3ZM695.433,527.7h-3V515.638h3ZM123.018,514.953h-3V502.887h3Zm572.415-11.382h-3V491.505h3ZM123.018,490.82h-3V478.754h3Zm572.415-11.381h-3V467.372h3ZM123.018,466.688h-3V454.621h3Zm572.415-11.382h-3V443.239h3ZM123.018,442.555h-3V430.488h3Zm572.415-11.382h-3v-3.722a19.485,19.485,0,0,0-1.5-7.549l2.77-1.155a22.5,22.5,0,0,1,1.735,8.7ZM124.777,419.316l-2.73-1.244a22.642,22.642,0,0,1,8.335-9.641l1.628,2.519A19.665,19.665,0,0,0,124.777,419.316Zm559.193-8.01a19.541,19.541,0,0,0-10.492-3.473l.1-3a22.52,22.52,0,0,1,12.1,4.006Zm-22.507-3.485H649.4v-3h12.066Zm-24.133,0H625.264v-3H637.33Zm-24.132,0H601.131v-3H613.2Zm-24.133,0H577v-3h12.067Zm-24.133,0H552.866v-3h12.066Zm-24.133,0H528.733v-3H540.8Zm-24.133,0H504.6v-3h12.066Zm-24.132,0H480.467v-3h12.067Zm-24.133,0H456.334v-3H468.4Zm-24.133,0H432.2v-3h12.067Zm-24.133,0H408.069v-3h12.066Zm-24.133,0H383.936v-3H396Zm-24.133,0H359.8v-3h12.066Zm-24.132,0H335.67v-3h12.067Zm-24.133,0H311.537v-3H323.6Zm-24.133,0H287.4v-3h12.066Zm-24.133,0H263.272v-3h12.066Zm-24.133,0H239.139v-3h12.066Zm-24.132,0H215.006v-3h12.067Zm-24.133,0H190.873v-3H202.94Zm-24.133,0H166.741v-3h12.066Zm-24.133,0H142.649l-.041-3h12.066Z" fill="#fff"></path>
    <g>
      <path d="M531.981,529.338H722.926a22.608,22.608,0,0,1,22.608,22.608v95.67a22.608,22.608,0,0,1-22.608,22.608H531.981a25.3,25.3,0,0,1-25.3-25.3V554.64A25.3,25.3,0,0,1,531.981,529.338Z" fill="#fff"></path>
      <path d="M722.926,671.725H531.981a26.833,26.833,0,0,1-26.8-26.8V554.641a26.832,26.832,0,0,1,26.8-26.8H722.926a24.136,24.136,0,0,1,24.108,24.108v95.67A24.136,24.136,0,0,1,722.926,671.725ZM531.981,530.838a23.83,23.83,0,0,0-23.8,23.8v90.281a23.83,23.83,0,0,0,23.8,23.8H722.926a21.131,21.131,0,0,0,21.108-21.109v-95.67a21.131,21.131,0,0,0-21.108-21.108Z" fill="#262626"></path>
    </g>
    <g>
      <circle cx="575.451" cy="599.781" r="34.446" fill="#fff"></circle>
      <path d="M575.45,635.728A35.947,35.947,0,1,1,611.4,599.781,35.986,35.986,0,0,1,575.45,635.728Zm0-68.893A32.947,32.947,0,1,0,608.4,599.781,32.982,32.982,0,0,0,575.45,566.835Z" fill="#262626"></path>
    </g>
    <g>
      <path d="M22.31,530.05a2.186,2.186,0,0,1-2.186-2.186V466.187a2.186,2.186,0,0,1,4.372,0v61.677A2.186,2.186,0,0,1,22.31,530.05Z" fill="#262626"></path>
      <g>
        <line x1="42.434" y1="497.026" x2="2.186" y2="497.025" fill="#fff"></line>
        <path d="M42.434,499.211H2.186a2.186,2.186,0,1,1,0-4.371H42.434a2.186,2.186,0,0,1,0,4.371Z" fill="#262626"></path>
      </g>
    </g>
    <g>
      <path d="M796.464,617.863a1.541,1.541,0,0,1-1.541-1.541V583.241a1.542,1.542,0,1,1,3.083,0v33.081A1.541,1.541,0,0,1,796.464,617.863Z" fill="#262626"></path>
      <g>
        <line x1="807.258" y1="599.781" x2="785.671" y2="599.781" fill="#fff"></line>
        <path d="M807.259,601.323H785.671a1.542,1.542,0,1,1,0-3.083h21.588a1.542,1.542,0,0,1,0,3.083Z" fill="#262626"></path>
      </g>
    </g>
    <g>
      <path d="M771.793,337.559a1.541,1.541,0,0,1-1.542-1.541V302.937a1.542,1.542,0,1,1,3.083,0v33.081A1.541,1.541,0,0,1,771.793,337.559Z" fill="#262626"></path>
      <g>
        <line x1="782.587" y1="319.477" x2="760.999" y2="319.477" fill="#fff"></line>
        <path d="M782.587,321.019H761a1.542,1.542,0,1,1,0-3.083h21.588a1.542,1.542,0,0,1,0,3.083Z" fill="#262626"></path>
      </g>
    </g>
    <g>
      <g>
        <path d="M181.744,126.677a11.028,11.028,0,1,1,1.173-.089A11.312,11.312,0,0,1,181.744,126.677Zm-.405-18.786a7.56,7.56,0,0,0-.82.062,7.773,7.773,0,1,0,.82-.062Z" fill="#292a2e"></path>
        <path d="M188.477,102.193a11.015,11.015,0,0,1-11.157-9.607h0a11.014,11.014,0,1,1,12.329,9.519A11.311,11.311,0,0,1,188.477,102.193Zm-.4-18.787a7.773,7.773,0,0,0-7.546,8.766h0a7.772,7.772,0,1,0,7.546-8.767Z" fill="#292a2e"></path>
        <ellipse cx="184.959" cy="103.127" rx="9.622" ry="14.405" transform="translate(36.489 254.129) rotate(-74.627)" fill="#fff"></ellipse>
        <path d="M188.355,114.779a22.23,22.23,0,0,1-6.376-.812c-8.666-2.383-14.144-9.011-12.472-15.088s9.768-8.972,18.431-6.592a20.125,20.125,0,0,1,9.871,5.92c2.507,2.9,3.431,6.151,2.6,9.168s-3.287,5.343-6.922,6.55A17.6,17.6,0,0,1,188.355,114.779Zm-6.67-20.05c-4.519.1-8.22,1.978-9.053,5.008-1.151,4.183,3.523,9.268,10.2,11.105a16.868,16.868,0,0,0,9.63.008c2.574-.855,4.286-2.394,4.819-4.334s-.151-4.137-1.927-6.188a16.866,16.866,0,0,0-8.279-4.916A18.783,18.783,0,0,0,181.685,94.729Z" fill="#292a2e"></path>
        <polygon points="185.884 113.058 190.531 94.93 186.097 93.511 180.698 111.855 185.884 113.058" fill="#292a2e"></polygon>
        <circle cx="165.848" cy="100.535" r="1.487" fill="#292a2e"></circle>
        <circle cx="169.084" cy="93.173" r="1.487" fill="#292a2e"></circle>
      </g>
      <path d="M347.608,300.245a1,1,0,0,1-.579-1.816,24.28,24.28,0,0,0,1.905-1.576,1,1,0,0,1,1.337,1.488,25.963,25.963,0,0,1-2.088,1.722A1,1,0,0,1,347.608,300.245Zm9.926-10.722a1,1,0,0,1-.815-1.578,69.128,69.128,0,0,0,5.977-10.267,1,1,0,1,1,1.806.857,70.97,70.97,0,0,1-6.151,10.565A1,1,0,0,1,357.534,289.523Zm10.372-21.672a1.029,1.029,0,0,1-.288-.042,1,1,0,0,1-.67-1.245,89.857,89.857,0,0,0,2.633-11.625,1,1,0,1,1,1.975.314,91.809,91.809,0,0,1-2.692,11.885A1,1,0,0,1,367.906,267.851Zm3.843-23.75h-.042a1,1,0,0,1-.958-1.04c.064-1.549.1-3.14.1-4.728a55.011,55.011,0,0,0-.459-7.136,1,1,0,1,1,1.983-.259,57.023,57.023,0,0,1,.476,7.395c0,1.616-.033,3.234-.1,4.81A1,1,0,0,1,371.749,244.1Zm-3.3-23.7a1,1,0,0,1-.935-.644,50.967,50.967,0,0,0-5.457-10.46,1,1,0,1,1,1.656-1.123,53.057,53.057,0,0,1,5.671,10.872,1,1,0,0,1-.58,1.29A.981.981,0,0,1,368.45,220.4Zm-73.9-4.78a11.878,11.878,0,0,1-8.829-3.3,1,1,0,0,1,1.442-1.386c2.142,2.227,5.528,3.089,9.88,2.516l.525-.073a1,1,0,0,1,.283,1.98l-.543.076A21.174,21.174,0,0,1,294.554,215.622Zm14.684-3.631a1,1,0,0,1-.446-1.9,21.705,21.705,0,0,0,8.635-7.436,1,1,0,0,1,1.669,1.1,23.69,23.69,0,0,1-9.414,8.123A.993.993,0,0,1,309.238,211.991Zm-25.059-10.713a.981.981,0,0,1-.227-.025,1,1,0,0,1-.749-1.2,24.707,24.707,0,0,1,5.952-10.933,1,1,0,0,1,1.469,1.356,22.681,22.681,0,0,0-5.472,10.026A1,1,0,0,1,284.179,201.278Zm70.915-.722a.994.994,0,0,1-.691-.278,64,64,0,0,0-9.312-7.349,1,1,0,1,1,1.09-1.676,65.859,65.859,0,0,1,9.6,7.58,1,1,0,0,1-.691,1.723ZM322.076,192.9c-.034,0-.067,0-.1,0a1,1,0,0,1-.894-1.1,34.21,34.21,0,0,0,.168-3.44,46.018,46.018,0,0,0-.808-8.285,1,1,0,0,1,1.967-.363q.212,1.155.372,2.282a1,1,0,0,1,1-.34,70.235,70.235,0,0,1,11.614,3.842,1,1,0,0,1-.789,1.838,68.186,68.186,0,0,0-11.282-3.732,1.023,1.023,0,0,1-.363-.167,44.153,44.153,0,0,1,.287,4.925A36.407,36.407,0,0,1,323.07,192,1,1,0,0,1,322.076,192.9Zm-22.3-8.838a1,1,0,0,1-.368-1.93c.618-.244,1.246-.468,1.867-.665a32.784,32.784,0,0,1,9.9-1.369l.435,0a1,1,0,0,1,0,2h-.007l-.424,0a30.768,30.768,0,0,0-9.29,1.275q-.893.284-1.739.618A.984.984,0,0,1,299.774,184.059Zm18.393-14.776a1,1,0,0,1-.938-.655,101.545,101.545,0,0,0-4.811-10.933,1,1,0,1,1,1.782-.908,103.377,103.377,0,0,1,4.906,11.152,1,1,0,0,1-.939,1.344Zm-10.849-21.515a1,1,0,0,1-.846-.464c-2.119-3.339-4.427-6.646-6.858-9.828a1,1,0,1,1,1.589-1.215c2.466,3.229,4.807,6.584,6.958,9.97a1,1,0,0,1-.308,1.38A.987.987,0,0,1,307.318,147.768ZM292.675,128.61a1,1,0,0,1-.739-.325c-1.222-1.335-2.47-2.639-3.708-3.878a60.708,60.708,0,0,0-4.871-4.371,1,1,0,1,1,1.253-1.558,62.34,62.34,0,0,1,5.032,4.515c1.259,1.259,2.527,2.585,3.77,3.943a1,1,0,0,1-.737,1.674Zm-18.788-14.92a1.009,1.009,0,0,1-.459-.112,63.892,63.892,0,0,0-11-4.427,1,1,0,0,1,.573-1.916,65.845,65.845,0,0,1,11.351,4.566,1,1,0,0,1-.46,1.889ZM215.03,109.4a1,1,0,0,1-.3-1.954,79.743,79.743,0,0,1,11.979-2.482,1,1,0,1,1,.273,1.98,79.075,79.075,0,0,0-11.651,2.411A1.011,1.011,0,0,1,215.03,109.4Zm35.885-2.683a1.117,1.117,0,0,1-.129-.008,84.476,84.476,0,0,0-11.9-.664h-.013a1,1,0,0,1-.013-2,89,89,0,0,1,12.18.68,1,1,0,0,1-.125,1.992Z" fill="#1e1e1e"></path>
    </g>
    <g>
      <g>
        <path d="M669.545,22.959a11.57,11.57,0,1,1,8.641-15.826h0a11.588,11.588,0,0,1-8.641,15.826ZM666.013,3.373a8.329,8.329,0,1,0,9.18,5A8.328,8.328,0,0,0,666.013,3.373Z" fill="#292a2e"></path>
        <path d="M669.469,49.848a11.606,11.606,0,1,1,2.39-.706A11.61,11.61,0,0,1,669.469,49.848Zm-3.515-19.59a8.388,8.388,0,0,0-1.723.508,8.293,8.293,0,1,0,1.723-.508Z" fill="#292a2e"></path>
        <ellipse cx="667.462" cy="25.337" rx="10.189" ry="15.254" transform="translate(640.224 692.724) rotate(-89.837)" fill="#fff"></ellipse>
        <path d="M671.805,36.764a24.185,24.185,0,0,1-4.377.382,21.213,21.213,0,0,1-11.677-3.291c-3.34-2.243-5.174-5.285-5.164-8.566s1.861-6.311,5.213-8.537a22.59,22.59,0,0,1,23.372.067c3.34,2.243,5.174,5.286,5.164,8.566s-1.861,6.313-5.213,8.537A19.587,19.587,0,0,1,671.805,36.764ZM663.686,17.1a16.33,16.33,0,0,0-6.1,2.353c-2.42,1.608-3.757,3.684-3.763,5.847s1.318,4.248,3.73,5.868a19.381,19.381,0,0,0,19.774.057c2.42-1.608,3.758-3.684,3.764-5.847h0c.006-2.163-1.318-4.247-3.73-5.868a17.963,17.963,0,0,0-9.88-2.738A20.977,20.977,0,0,0,663.686,17.1Z" fill="#292a2e"></path>
        <polygon points="663.757 15.446 664.045 35.261 668.97 35.479 669.39 15.235 663.757 15.446" fill="#292a2e"></polygon>
        <circle cx="686.449" cy="31.098" r="1.575" fill="#292a2e"></circle>
        <circle cx="687.71" cy="22.676" r="1.575" fill="#292a2e"></circle>
      </g>
      <path d="M451.667,254.334a1,1,0,0,1-.876-.516,84.366,84.366,0,0,1-4.838-11.234,1,1,0,0,1,1.881-.68,84.237,84.237,0,0,0,4.707,10.946,1,1,0,0,1-.874,1.484Zm-8.326-22.624a1,1,0,0,1-.968-.75c-1-3.889-1.853-7.889-2.52-11.891a1,1,0,0,1,1.973-.328c.658,3.944,1.493,7.886,2.484,11.719a1,1,0,0,1-.718,1.218A.988.988,0,0,1,443.341,231.71Zm-3.972-23.778a1,1,0,0,1-1-.921c-.291-3.688-.439-7.432-.439-11.128l0-1.014a1,1,0,1,1,2,.014l0,1c0,3.644.146,7.335.433,10.97a1,1,0,0,1-.917,1.076Q439.41,207.932,439.369,207.932Zm.176-24.1c-.032,0-.063,0-.1,0a1,1,0,0,1-.9-1.089c.375-4.01.93-8.06,1.649-12.036a1,1,0,1,1,1.967.356c-.708,3.92-1.255,7.912-1.625,11.866A1,1,0,0,1,439.545,183.828Zm4.277-23.72a.973.973,0,0,1-.26-.034,1,1,0,0,1-.707-1.225c1.039-3.866,2.259-7.765,3.628-11.59a1,1,0,1,1,1.883.674c-1.351,3.774-2.555,7.622-3.579,11.435A1,1,0,0,1,443.822,160.108Zm8.107-22.7a.987.987,0,0,1-.408-.088,1,1,0,0,1-.5-1.321c.817-1.824,1.686-3.671,2.583-5.486s1.853-3.633,2.84-5.388a1,1,0,1,1,1.744.981c-.97,1.723-1.908,3.5-2.791,5.292s-1.743,3.617-2.552,5.419A1,1,0,0,1,451.929,137.407Zm106.077-6.84a1,1,0,0,1-.131-1.991c3.758-.5,6.437-2.755,7.962-6.708a1,1,0,1,1,1.865.721c-1.782,4.621-5.089,7.377-9.563,7.97A1,1,0,0,1,558.006,130.567Zm-11.626-2.524a.982.982,0,0,1-.438-.1,47.614,47.614,0,0,1-10.182-6.9,1,1,0,1,1,1.313-1.51,45.516,45.516,0,0,0,9.748,6.615,1,1,0,0,1-.441,1.9Zm-82.572-11.585a1,1,0,0,1-.809-1.587,99.191,99.191,0,0,1,7.736-9.406,1,1,0,0,1,1.463,1.363,97.312,97.312,0,0,0-7.58,9.217A1,1,0,0,1,463.808,116.458Zm64.337-3.942a1,1,0,0,1-.79-.386,63.816,63.816,0,0,1-6.574-10.331,1,1,0,1,1,1.785-.9,61.807,61.807,0,0,0,6.367,10.006,1,1,0,0,1-.788,1.615Zm40.073-1.174a1,1,0,0,1-1-.941A30.133,30.133,0,0,0,564.4,99.152a1,1,0,1,1,1.8-.861,32.1,32.1,0,0,1,3.015,11.991,1,1,0,0,1-.938,1.058Zm-87.97-12.456a1,1,0,0,1-.636-1.773,88.237,88.237,0,0,1,9.926-7.082,1,1,0,1,1,1.045,1.7,86.055,86.055,0,0,0-9.7,6.922A.991.991,0,0,1,480.248,98.886Zm37.188-7.813a1,1,0,0,1-.97-.76,44.233,44.233,0,0,1-1.327-10.594q0-.82.033-1.642a.987.987,0,0,1,1.039-.959,1,1,0,0,1,.959,1.039q-.03.782-.031,1.562a42.241,42.241,0,0,0,1.269,10.115,1,1,0,0,1-.732,1.21A.944.944,0,0,1,517.436,91.073Zm40.6-.874a1,1,0,0,1-.659-.248,35.251,35.251,0,0,0-9.978-6.062,1,1,0,1,1,.756-1.852,37.224,37.224,0,0,1,10.541,6.41,1,1,0,0,1-.66,1.752Zm-57.267-3.847a1,1,0,0,1-.392-1.92,77.617,77.617,0,0,1,11.572-3.9,1,1,0,0,1,.485,1.94,75.688,75.688,0,0,0-11.274,3.8A1,1,0,0,1,500.771,86.352Zm35.363-5.421a1.017,1.017,0,0,1-.134-.009,56.463,56.463,0,0,0-7.48-.488c-1.452,0-2.889.05-4.357.154a1,1,0,1,1-.14-1.994c1.514-.109,3-.175,4.5-.16a58.438,58.438,0,0,1,7.745.506,1,1,0,0,1-.132,1.991ZM518.582,67.35a1,1,0,0,1-.933-1.359c.449-1.171.967-2.343,1.539-3.483a79.954,79.954,0,0,1,4.19-7.349,1,1,0,0,1,1.682,1.082,77.976,77.976,0,0,0-4.085,7.163c-.542,1.082-1.033,2.194-1.459,3.3A1,1,0,0,1,518.582,67.35Zm12.882-20.285a1,1,0,0,1-.754-1.657,90.868,90.868,0,0,1,8.623-8.619A1,1,0,0,1,540.65,38.3a88.259,88.259,0,0,0-8.432,8.428A1,1,0,0,1,531.464,47.065Zm18.09-15.875a1,1,0,0,1-.561-1.828,106.5,106.5,0,0,1,10.468-6.223,1,1,0,1,1,.924,1.773,104.877,104.877,0,0,0-10.272,6.107A1,1,0,0,1,549.554,31.19Zm21.36-11.147a1,1,0,0,1-.363-1.932A116.737,116.737,0,0,1,582.1,14.287a1,1,0,0,1,.527,1.93,114.182,114.182,0,0,0-11.352,3.758A.99.99,0,0,1,570.914,20.043Zm58.575-5.453a1.033,1.033,0,0,1-.251-.031,69.672,69.672,0,0,0-11.118-1.88,1,1,0,1,1,.18-1.992,71.955,71.955,0,0,1,11.438,1.934,1,1,0,0,1-.249,1.969Zm-35.335-.9a1,1,0,0,1-.16-1.988,105.692,105.692,0,0,1,12.114-1.26.991.991,0,0,1,1.044.954,1,1,0,0,1-.954,1.044,103.463,103.463,0,0,0-11.883,1.237A1,1,0,0,1,594.154,13.685Z" fill="#1e1e1e"></path>
    </g>
  </g>
</svg>